MoBL_ARMS_module2_4_elbow_flexion_states	
version=1	
nRows=420	
nColumns=2	
inDegrees=yes	
	
# SIMM Motion File Header:	
name MoBL_ARMS_module2_4_elbow_flexion_states	
datacolumns 2	
datarows 420	
otherdata 1	
range 0 1.021546907	
endheader	
time	elbow_flexion
0	40.00000004
0.0031679	39.99467952
0.007445545	39.97072264
0.010182703	39.94537794
0.012919861	39.9123152
0.016723068	39.85370515
0.019768133	39.7962996
0.022813198	39.72969265
0.025858263	39.65401896
0.028903327	39.56939199
0.031948392	39.47595988
0.03463132	39.38643619
0.037314248	39.29027796
0.039997176	39.18757344
0.042680104	39.07842664
0.044826001	38.98655522
0.046971899	38.89067719
0.049746901	38.76083456
0.052164314	38.64242198
0.054581727	38.51915226
0.05699914	38.39110167
0.059416553	38.25834699
0.061833966	38.12096561
0.064251379	37.97903551
0.066668792	37.83263514
0.069086205	37.68184342
0.071503618	37.52673978
0.073921031	37.36740409
0.076338444	37.20391665
0.078755857	37.03635818
0.081173269	36.86480982
0.083590682	36.68935297
0.086008095	36.51006935
0.088425508	36.32704118
0.090842921	36.14035062
0.093260334	35.95008005
0.095677747	35.75631209
0.09809516	35.55912956
0.100512573	35.35861537
0.102929986	35.15485251
0.105347399	34.94792402
0.107764812	34.73791297
0.110182225	34.52490246
0.112599638	34.30897551
0.115017051	34.09021503
0.117434464	33.86870386
0.119851877	33.64452483
0.12226929	33.41776051
0.124686703	33.18849336
0.127104116	32.95680568
0.129521528	32.72277926
0.131938941	32.48649576
0.134356354	32.24803683
0.136773767	32.00748376
0.13919118	31.7649175
0.141608593	31.52041882
0.144026006	31.27406826
0.146443419	31.02594616
0.148860832	30.77613257
0.151278245	30.52470725
0.153695658	30.27174962
0.156113071	30.01733872
0.158530484	29.76155343
0.160947897	29.50447186
0.16336531	29.24617171
0.165782723	28.9867303
0.168200136	28.72622442
0.170617549	28.4647304
0.173034962	28.20232398
0.175452375	27.93908037
0.177869788	27.67507419
0.1802872	27.41037945
0.182704613	27.14506944
0.185122026	26.87921661
0.187539439	26.61289259
0.189956852	26.34616836
0.192374265	26.07911384
0.194791678	25.81179804
0.197209091	25.54428904
0.199626504	25.27665403
0.202043917	25.00895927
0.20446133	24.74127016
0.206878743	24.47365105
0.209296156	24.20616537
0.211713569	23.93887555
0.214130982	23.6718431
0.216548395	23.4051285
0.218965808	23.13879125
0.221383221	22.87288985
0.223800634	22.60748204
0.226218047	22.34262424
0.228635459	22.07837184
0.231052872	21.81477923
0.233470285	21.55189983
0.235887698	21.28978603
0.238305111	21.02848921
0.240722524	20.7680598
0.243139937	20.50854713
0.24555735	20.24999954
0.247974763	19.99246434
0.250392176	19.73598784
0.252809589	19.48061543
0.255227002	19.22639143
0.257644415	18.97335924
0.260061828	18.72156117
0.262479241	18.47103874
0.264896654	18.22183225
0.267314067	17.9739811
0.26973148	17.72752368
0.272148893	17.48249748
0.274566306	17.23893904
0.276983718	16.99688396
0.279401131	16.75636692
0.281818544	16.5174217
0.284235957	16.28008111
0.28665337	16.04437707
0.289070783	15.8103406
0.291488196	15.57800186
0.293905609	15.34739012
0.296323022	15.11853384
0.298740435	14.89146061
0.301157848	14.66619714
0.303575261	14.44276933
0.305992674	14.22120227
0.308410087	14.00152025
0.3108275	13.7837468
0.313244913	13.56790464
0.315662326	13.35401579
0.318079739	13.14210169
0.320497152	12.93218362
0.322914565	12.72428234
0.325331978	12.51841879
0.32774939	12.31461454
0.330166803	12.11289217
0.332584216	11.91327564
0.335001629	11.71579072
0.337419042	11.52046539
0.339836455	11.32733035
0.342253868	11.13641992
0.344671281	10.94777381
0.347088694	10.76143624
0.349506107	10.57745584
0.35192352	10.39588609
0.354340933	10.21678567
0.356758346	10.04021896
0.359175759	9.866256119
0.361593172	9.694973507
0.364010585	9.526453911
0.366427998	9.360786747
0.368845411	9.1980682
0.371262824	9.038401292
0.373680237	8.881895847
0.376097649	8.728668473
0.378515062	8.578842346
0.380932475	8.432547003
0.383349888	8.289922007
0.385767301	8.151128731
0.388184714	8.016337596
0.390602127	7.885722785
0.39301954	7.759461513
0.395436953	7.637733184
0.397854366	7.520718418
0.400271779	7.408598033
0.402689192	7.301551911
0.405106605	7.199757827
0.407524018	7.103390191
0.409941431	7.012618767
0.412358844	6.927607342
0.414776257	6.848512402
0.41719367	6.775481768
0.419611083	6.708653328
0.422028496	6.648153735
0.424445908	6.59409721
0.426863321	6.546584382
0.429280734	6.505701271
0.431698147	6.471518345
0.43411556	6.444089738
0.436532973	6.423452587
0.438950386	6.409626544
0.441367799	6.402613436
0.443785212	6.402397112
0.446202625	6.408943442
0.448620038	6.422200518
0.451037451	6.442098995
0.453454864	6.468552621
0.455872277	6.501458908
0.45828969	6.54069995
0.460707103	6.586143361
0.463124516	6.637643324
0.465541929	6.6950417
0.467959342	6.7581692
0.470376755	6.826846585
0.472794168	6.900885948
0.47521158	6.980092033
0.477628993	7.064263559
0.480046406	7.153194537
0.482463819	7.246675546
0.484881232	7.344494975
0.487298645	7.446440181
0.489716058	7.552298471
0.492133471	7.661857974
0.494550884	7.774908601
0.496968297	7.891243084
0.49938571	8.01065795
0.501803123	8.132954325
0.504220536	8.257938563
0.506637949	8.385422741
0.509055362	8.515226192
0.511472775	8.647186671
0.513890188	8.781157206
0.516307601	8.916997637
0.518725014	9.054574673
0.521142427	9.193761892
0.523559839	9.334439723
0.525977252	9.476495294
0.528394665	9.619822298
0.530812078	9.764320809
0.533229491	9.90989707
0.535646904	10.05646325
0.538064317	10.20393718
0.54048173	10.35224208
0.542899143	10.50130618
0.545316556	10.65106257
0.547733969	10.80144883
0.550151382	10.95240667
0.552568795	11.10388166
0.554986208	11.25582286
0.557403621	11.40818256
0.559821034	11.56091673
0.562238447	11.71398468
0.56465586	11.86734776
0.567073273	12.02096917
0.569490686	12.17481369
0.571908098	12.3288476
0.574325511	12.48303848
0.576742924	12.63735509
0.579160337	12.79176716
0.58157775	12.94624522
0.583995163	13.10076042
0.586412576	13.25528423
0.588829989	13.40978865
0.591247402	13.56424586
0.593664815	13.71862824
0.596082228	13.87290818
0.598499641	14.02705806
0.600917054	14.18105024
0.603334467	14.33485706
0.60575188	14.48845084
0.608169293	14.64180388
0.610586706	14.79488849
0.613004119	14.94767698
0.615421532	15.10014166
0.617838945	15.25225485
0.620256358	15.40398885
0.62267377	15.55531603
0.625091183	15.70620883
0.627508596	15.85663971
0.629926009	16.00658121
0.632343422	16.15600589
0.634760835	16.30488641
0.637178248	16.45319549
0.639595661	16.60090594
0.642013074	16.74799067
0.644430487	16.89442268
0.6468479	17.04017505
0.649265313	17.18522105
0.651682726	17.32953406
0.654100139	17.4730876
0.656517552	17.61585531
0.658934965	17.75781101
0.661352378	17.89892868
0.663769791	18.03918248
0.666187204	18.17854672
0.668604617	18.31699593
0.671022029	18.45450484
0.673439442	18.59104836
0.675856855	18.72660156
0.678274268	18.86113969
0.680691681	18.99463851
0.683109094	19.1270739
0.685526507	19.25842196
0.68794392	19.38865903
0.690361333	19.51776169
0.692778746	19.64570686
0.695196159	19.77247174
0.697613572	19.89803377
0.700030985	20.02237075
0.702448398	20.14546077
0.704865811	20.26728226
0.707283224	20.38781394
0.709700637	20.50703487
0.71211805	20.62492445
0.714535463	20.74146242
0.716952876	20.85662888
0.719370288	20.97040427
0.721787701	21.08276941
0.724205114	21.19370549
0.726622527	21.30319407
0.72903994	21.41121706
0.731457353	21.51775677
0.733874766	21.6227959
0.736292179	21.72631754
0.738709592	21.8283052
0.741127005	21.92874279
0.743544418	22.02761466
0.745961831	22.12490559
0.748379244	22.22060081
0.750796657	22.31468597
0.75321407	22.40714721
0.755631483	22.49797108
0.758048896	22.58714459
0.760466309	22.6746552
0.762883722	22.76049089
0.765301135	22.84464007
0.767718548	22.92709162
0.77013596	23.00783478
0.772553373	23.08685922
0.774970786	23.16415542
0.777388199	23.23971419
0.779805612	23.3135268
0.782223025	23.38558499
0.784640438	23.45588098
0.787057851	23.52440747
0.789475264	23.59115766
0.791892677	23.65612522
0.79431009	23.71930431
0.796727503	23.78068957
0.799144916	23.84027615
0.801562329	23.89805968
0.803979742	23.95403624
0.806397155	24.00820245
0.808814568	24.06055538
0.811231981	24.11109263
0.813649394	24.15981225
0.816066807	24.20671279
0.818484219	24.25179329
0.820901632	24.29505325
0.823319045	24.33649268
0.825736458	24.37611203
0.828153871	24.41391227
0.830571284	24.44989481
0.832988697	24.48406155
0.83540611	24.51641484
0.837823523	24.54695751
0.840240936	24.57569285
0.842658349	24.60262462
0.845075762	24.62775701
0.847493175	24.65109468
0.849910588	24.67264273
0.852328001	24.69240672
0.854745414	24.71039263
0.857162827	24.72660689
0.85958024	24.74105635
0.861997653	24.75374829
0.864415066	24.76469042
0.866832478	24.77389086
0.869249891	24.78135815
0.871667304	24.78710121
0.874084717	24.79112939
0.87650213	24.79345242
0.878919543	24.79408044
0.881336956	24.79302394
0.883754369	24.79029383
0.886171782	24.78590134
0.888589195	24.77985813
0.891006608	24.77217616
0.893424021	24.76286778
0.895841434	24.75194568
0.898258847	24.73942289
0.90067626	24.72531277
0.903093673	24.70962901
0.905511086	24.69238563
0.907928499	24.67359695
0.910345912	24.6532776
0.912763325	24.63144252
0.915180737	24.60810694
0.91759815	24.58328637
0.920015563	24.55699661
0.922432976	24.52925371
0.924850389	24.50007403
0.927267802	24.46947413
0.929685215	24.43747088
0.932102628	24.40408133
0.934520041	24.36932283
0.936937454	24.33321291
0.939354867	24.29576935
0.94177228	24.25701012
0.944189693	24.21695343
0.946607106	24.17561765
0.949024519	24.13302138
0.951441932	24.08918338
0.953859345	24.04412258
0.956276758	23.99785812
0.958694171	23.95040925
0.961111584	23.90179542
0.963528997	23.8520362
0.965946409	23.80115134
0.968363822	23.74916068
0.970781235	23.69608419
0.973198648	23.64194196
0.975616061	23.58675421
0.978033474	23.53054124
0.980450887	23.47332347
0.9828683	23.4151214
0.985285713	23.3559556
0.987703126	23.29584675
0.990120539	23.23481557
0.992537952	23.17288285
0.994955365	23.11006945
0.997372778	23.04639626
0.999790191	22.98188422
1.002207604	22.91655431
1.004625017	22.85042781
1.00704243	22.78352566
1.009459843	22.71586881
1.011877256	22.64747828
1.014294668	22.57837514
1.016712081	22.50858042
1.019129494	22.43811522
1.021546907	22.36700058
